<mxfile host="Electron" agent="Mozilla/5.0 (Windows NT 10.0; Win64; x64) AppleWebKit/537.36 (KHTML, like Gecko) draw.io/26.1.1 Chrome/132.0.6834.210 Electron/34.3.3 Safari/537.36" version="26.1.1">
  <diagram id="C5RBs43oDa-KdzZeNtuy" name="Page-1">
    <mxGraphModel dx="3197" dy="336" grid="1" gridSize="10" guides="1" tooltips="1" connect="1" arrows="1" fold="1" page="1" pageScale="1" pageWidth="2500" pageHeight="827" math="0" shadow="0">
      <root>
        <mxCell id="WIyWlLk6GJQsqaUBKTNV-0" />
        <mxCell id="WIyWlLk6GJQsqaUBKTNV-1" parent="WIyWlLk6GJQsqaUBKTNV-0" />
        <mxCell id="0jry5WGNFstQfFkWWXDU-97" value="1..." style="text;html=1;align=center;verticalAlign=middle;resizable=0;points=[];autosize=1;strokeColor=none;fillColor=none;" parent="WIyWlLk6GJQsqaUBKTNV-1" vertex="1">
          <mxGeometry x="-1040" y="1254.3" width="40" height="30" as="geometry" />
        </mxCell>
        <mxCell id="efPww8hpB5FVF6G8bq4k-25" value="&lt;b&gt;SavingsAccountLauncher&lt;/b&gt;" style="swimlane;fontStyle=0;childLayout=stackLayout;horizontal=1;startSize=26;fillColor=none;horizontalStack=0;resizeParent=1;resizeParentMax=0;resizeLast=0;collapsible=1;marginBottom=0;whiteSpace=wrap;html=1;" parent="WIyWlLk6GJQsqaUBKTNV-1" vertex="1">
          <mxGeometry x="27.25" y="350" width="230" height="78" as="geometry" />
        </mxCell>
        <mxCell id="efPww8hpB5FVF6G8bq4k-26" value="&lt;u&gt;+ savingsAccountInit(): void&lt;/u&gt;" style="text;strokeColor=none;fillColor=none;align=left;verticalAlign=top;spacingLeft=4;spacingRight=4;overflow=hidden;rotatable=0;points=[[0,0.5],[1,0.5]];portConstraint=eastwest;whiteSpace=wrap;html=1;" parent="efPww8hpB5FVF6G8bq4k-25" vertex="1">
          <mxGeometry y="26" width="230" height="26" as="geometry" />
        </mxCell>
        <mxCell id="efPww8hpB5FVF6G8bq4k-27" value="&lt;u&gt;# getLoggedAccount(): SavingsAccount&lt;/u&gt;" style="text;strokeColor=none;fillColor=none;align=left;verticalAlign=top;spacingLeft=4;spacingRight=4;overflow=hidden;rotatable=0;points=[[0,0.5],[1,0.5]];portConstraint=eastwest;whiteSpace=wrap;html=1;" parent="efPww8hpB5FVF6G8bq4k-25" vertex="1">
          <mxGeometry y="52" width="230" height="26" as="geometry" />
        </mxCell>
        <mxCell id="efPww8hpB5FVF6G8bq4k-29" value="&lt;b&gt;StudentAccountLauncher&lt;/b&gt;" style="swimlane;fontStyle=0;childLayout=stackLayout;horizontal=1;startSize=26;fillColor=none;horizontalStack=0;resizeParent=1;resizeParentMax=0;resizeLast=0;collapsible=1;marginBottom=0;whiteSpace=wrap;html=1;" parent="WIyWlLk6GJQsqaUBKTNV-1" vertex="1">
          <mxGeometry x="277.25" y="350" width="230" height="78" as="geometry" />
        </mxCell>
        <mxCell id="efPww8hpB5FVF6G8bq4k-30" value="&lt;u&gt;+ creditAccountInit(): void&lt;/u&gt;" style="text;strokeColor=none;fillColor=none;align=left;verticalAlign=top;spacingLeft=4;spacingRight=4;overflow=hidden;rotatable=0;points=[[0,0.5],[1,0.5]];portConstraint=eastwest;whiteSpace=wrap;html=1;" parent="efPww8hpB5FVF6G8bq4k-29" vertex="1">
          <mxGeometry y="26" width="230" height="26" as="geometry" />
        </mxCell>
        <mxCell id="efPww8hpB5FVF6G8bq4k-31" value="&lt;u&gt;# getLoggedAccount(): StudentAccount&lt;/u&gt;" style="text;strokeColor=none;fillColor=none;align=left;verticalAlign=top;spacingLeft=4;spacingRight=4;overflow=hidden;rotatable=0;points=[[0,0.5],[1,0.5]];portConstraint=eastwest;whiteSpace=wrap;html=1;" parent="efPww8hpB5FVF6G8bq4k-29" vertex="1">
          <mxGeometry y="52" width="230" height="26" as="geometry" />
        </mxCell>
        <mxCell id="efPww8hpB5FVF6G8bq4k-37" value="&lt;b&gt;BusinessAccountLauncher&lt;/b&gt;" style="swimlane;fontStyle=0;childLayout=stackLayout;horizontal=1;startSize=26;fillColor=none;horizontalStack=0;resizeParent=1;resizeParentMax=0;resizeLast=0;collapsible=1;marginBottom=0;whiteSpace=wrap;html=1;" parent="WIyWlLk6GJQsqaUBKTNV-1" vertex="1">
          <mxGeometry x="527.25" y="350" width="230" height="78" as="geometry" />
        </mxCell>
        <mxCell id="efPww8hpB5FVF6G8bq4k-38" value="&lt;u&gt;+ creditAccountInit(): void&lt;/u&gt;" style="text;strokeColor=none;fillColor=none;align=left;verticalAlign=top;spacingLeft=4;spacingRight=4;overflow=hidden;rotatable=0;points=[[0,0.5],[1,0.5]];portConstraint=eastwest;whiteSpace=wrap;html=1;" parent="efPww8hpB5FVF6G8bq4k-37" vertex="1">
          <mxGeometry y="26" width="230" height="26" as="geometry" />
        </mxCell>
        <mxCell id="efPww8hpB5FVF6G8bq4k-39" value="&lt;u&gt;# getLoggedAccount(): BusinessAccount&lt;/u&gt;" style="text;strokeColor=none;fillColor=none;align=left;verticalAlign=top;spacingLeft=4;spacingRight=4;overflow=hidden;rotatable=0;points=[[0,0.5],[1,0.5]];portConstraint=eastwest;whiteSpace=wrap;html=1;" parent="efPww8hpB5FVF6G8bq4k-37" vertex="1">
          <mxGeometry y="52" width="230" height="26" as="geometry" />
        </mxCell>
        <mxCell id="efPww8hpB5FVF6G8bq4k-40" value="&lt;b&gt;CreditAccountLauncher&lt;/b&gt;" style="swimlane;fontStyle=0;childLayout=stackLayout;horizontal=1;startSize=26;fillColor=none;horizontalStack=0;resizeParent=1;resizeParentMax=0;resizeLast=0;collapsible=1;marginBottom=0;whiteSpace=wrap;html=1;" parent="WIyWlLk6GJQsqaUBKTNV-1" vertex="1">
          <mxGeometry x="777.25" y="350" width="220" height="78" as="geometry" />
        </mxCell>
        <mxCell id="efPww8hpB5FVF6G8bq4k-41" value="&lt;u&gt;+ creditAccountInit(): void&lt;/u&gt;" style="text;strokeColor=none;fillColor=none;align=left;verticalAlign=top;spacingLeft=4;spacingRight=4;overflow=hidden;rotatable=0;points=[[0,0.5],[1,0.5]];portConstraint=eastwest;whiteSpace=wrap;html=1;" parent="efPww8hpB5FVF6G8bq4k-40" vertex="1">
          <mxGeometry y="26" width="220" height="26" as="geometry" />
        </mxCell>
        <mxCell id="efPww8hpB5FVF6G8bq4k-42" value="&lt;u&gt;# getLoggedAccount(): CreditAccount&lt;/u&gt;" style="text;strokeColor=none;fillColor=none;align=left;verticalAlign=top;spacingLeft=4;spacingRight=4;overflow=hidden;rotatable=0;points=[[0,0.5],[1,0.5]];portConstraint=eastwest;whiteSpace=wrap;html=1;" parent="efPww8hpB5FVF6G8bq4k-40" vertex="1">
          <mxGeometry y="52" width="220" height="26" as="geometry" />
        </mxCell>
        <mxCell id="efPww8hpB5FVF6G8bq4k-98" value="StudentAccount" style="swimlane;fontStyle=1;align=center;verticalAlign=top;childLayout=stackLayout;horizontal=1;startSize=26;horizontalStack=0;resizeParent=1;resizeLast=0;collapsible=1;marginBottom=0;rounded=0;shadow=0;strokeWidth=1;" parent="WIyWlLk6GJQsqaUBKTNV-1" vertex="1">
          <mxGeometry x="-510" y="1260" width="380" height="120" as="geometry">
            <mxRectangle x="230" y="140" width="160" height="26" as="alternateBounds" />
          </mxGeometry>
        </mxCell>
        <mxCell id="efPww8hpB5FVF6G8bq4k-99" value="- balance: double" style="text;align=left;verticalAlign=top;spacingLeft=4;spacingRight=4;overflow=hidden;rotatable=0;points=[[0,0.5],[1,0.5]];portConstraint=eastwest;rounded=0;shadow=0;html=0;" parent="efPww8hpB5FVF6G8bq4k-98" vertex="1">
          <mxGeometry y="26" width="380" height="26" as="geometry" />
        </mxCell>
        <mxCell id="efPww8hpB5FVF6G8bq4k-100" value="" style="line;html=1;strokeWidth=1;align=left;verticalAlign=middle;spacingTop=-1;spacingLeft=3;spacingRight=3;rotatable=0;labelPosition=right;points=[];portConstraint=eastwest;" parent="efPww8hpB5FVF6G8bq4k-98" vertex="1">
          <mxGeometry y="52" width="380" height="14" as="geometry" />
        </mxCell>
        <mxCell id="efPww8hpB5FVF6G8bq4k-101" value="+ StudentAccount(Bank, String, String, String, String, String, double)" style="text;align=left;verticalAlign=top;spacingLeft=4;spacingRight=4;overflow=hidden;rotatable=0;points=[[0,0.5],[1,0.5]];portConstraint=eastwest;fontStyle=0" parent="efPww8hpB5FVF6G8bq4k-98" vertex="1">
          <mxGeometry y="66" width="380" height="26" as="geometry" />
        </mxCell>
        <mxCell id="XZByMjDaAsr5z9Z-ohTA-1" value="+ init(): void" style="text;align=left;verticalAlign=top;spacingLeft=4;spacingRight=4;overflow=hidden;rotatable=0;points=[[0,0.5],[1,0.5]];portConstraint=eastwest;fontStyle=0" vertex="1" parent="efPww8hpB5FVF6G8bq4k-98">
          <mxGeometry y="92" width="380" height="28" as="geometry" />
        </mxCell>
        <mxCell id="efPww8hpB5FVF6G8bq4k-83" value="SavingsAccount" style="swimlane;fontStyle=1;align=center;verticalAlign=top;childLayout=stackLayout;horizontal=1;startSize=26;horizontalStack=0;resizeParent=1;resizeLast=0;collapsible=1;marginBottom=0;rounded=0;shadow=0;strokeWidth=1;" parent="WIyWlLk6GJQsqaUBKTNV-1" vertex="1">
          <mxGeometry x="-930" y="1260" width="380" height="120.7" as="geometry">
            <mxRectangle x="230" y="140" width="160" height="26" as="alternateBounds" />
          </mxGeometry>
        </mxCell>
        <mxCell id="efPww8hpB5FVF6G8bq4k-84" value="- balance: double" style="text;align=left;verticalAlign=top;spacingLeft=4;spacingRight=4;overflow=hidden;rotatable=0;points=[[0,0.5],[1,0.5]];portConstraint=eastwest;rounded=0;shadow=0;html=0;" parent="efPww8hpB5FVF6G8bq4k-83" vertex="1">
          <mxGeometry y="26" width="380" height="26" as="geometry" />
        </mxCell>
        <mxCell id="efPww8hpB5FVF6G8bq4k-85" value="" style="line;html=1;strokeWidth=1;align=left;verticalAlign=middle;spacingTop=-1;spacingLeft=3;spacingRight=3;rotatable=0;labelPosition=right;points=[];portConstraint=eastwest;" parent="efPww8hpB5FVF6G8bq4k-83" vertex="1">
          <mxGeometry y="52" width="380" height="14" as="geometry" />
        </mxCell>
        <mxCell id="efPww8hpB5FVF6G8bq4k-86" value="+ SavingsAccount(String, String, String, String, String, String, double)" style="text;align=left;verticalAlign=top;spacingLeft=4;spacingRight=4;overflow=hidden;rotatable=0;points=[[0,0.5],[1,0.5]];portConstraint=eastwest;fontStyle=0" parent="efPww8hpB5FVF6G8bq4k-83" vertex="1">
          <mxGeometry y="66" width="380" height="26" as="geometry" />
        </mxCell>
        <mxCell id="efPww8hpB5FVF6G8bq4k-87" value="+ init(): void" style="text;align=left;verticalAlign=top;spacingLeft=4;spacingRight=4;overflow=hidden;rotatable=0;points=[[0,0.5],[1,0.5]];portConstraint=eastwest;fontStyle=0" parent="efPww8hpB5FVF6G8bq4k-83" vertex="1">
          <mxGeometry y="92" width="380" height="28" as="geometry" />
        </mxCell>
        <mxCell id="efPww8hpB5FVF6G8bq4k-88" value="CreditAccount" style="swimlane;fontStyle=1;align=center;verticalAlign=top;childLayout=stackLayout;horizontal=1;startSize=26;horizontalStack=0;resizeParent=1;resizeLast=0;collapsible=1;marginBottom=0;rounded=0;shadow=0;strokeWidth=1;" parent="WIyWlLk6GJQsqaUBKTNV-1" vertex="1">
          <mxGeometry x="295" y="1260" width="340" height="120" as="geometry">
            <mxRectangle x="230" y="140" width="160" height="26" as="alternateBounds" />
          </mxGeometry>
        </mxCell>
        <mxCell id="efPww8hpB5FVF6G8bq4k-89" value="- loan: double" style="text;align=left;verticalAlign=top;spacingLeft=4;spacingRight=4;overflow=hidden;rotatable=0;points=[[0,0.5],[1,0.5]];portConstraint=eastwest;rounded=0;shadow=0;html=0;" parent="efPww8hpB5FVF6G8bq4k-88" vertex="1">
          <mxGeometry y="26" width="340" height="26" as="geometry" />
        </mxCell>
        <mxCell id="efPww8hpB5FVF6G8bq4k-90" value="" style="line;html=1;strokeWidth=1;align=left;verticalAlign=middle;spacingTop=-1;spacingLeft=3;spacingRight=3;rotatable=0;labelPosition=right;points=[];portConstraint=eastwest;" parent="efPww8hpB5FVF6G8bq4k-88" vertex="1">
          <mxGeometry y="52" width="340" height="14" as="geometry" />
        </mxCell>
        <mxCell id="efPww8hpB5FVF6G8bq4k-91" value="+ CreditAccount(Bank, String, String, String, String, String)" style="text;align=left;verticalAlign=top;spacingLeft=4;spacingRight=4;overflow=hidden;rotatable=0;points=[[0,0.5],[1,0.5]];portConstraint=eastwest;fontStyle=0" parent="efPww8hpB5FVF6G8bq4k-88" vertex="1">
          <mxGeometry y="66" width="340" height="26" as="geometry" />
        </mxCell>
        <mxCell id="XZByMjDaAsr5z9Z-ohTA-3" value="+ init(): void" style="text;align=left;verticalAlign=top;spacingLeft=4;spacingRight=4;overflow=hidden;rotatable=0;points=[[0,0.5],[1,0.5]];portConstraint=eastwest;fontStyle=0" vertex="1" parent="efPww8hpB5FVF6G8bq4k-88">
          <mxGeometry y="92" width="340" height="28" as="geometry" />
        </mxCell>
        <mxCell id="efPww8hpB5FVF6G8bq4k-93" value="BusinessAccount" style="swimlane;fontStyle=1;align=center;verticalAlign=top;childLayout=stackLayout;horizontal=1;startSize=26;horizontalStack=0;resizeParent=1;resizeLast=0;collapsible=1;marginBottom=0;rounded=0;shadow=0;strokeWidth=1;" parent="WIyWlLk6GJQsqaUBKTNV-1" vertex="1">
          <mxGeometry x="-90" y="1260" width="340" height="146" as="geometry">
            <mxRectangle x="230" y="140" width="160" height="26" as="alternateBounds" />
          </mxGeometry>
        </mxCell>
        <mxCell id="efPww8hpB5FVF6G8bq4k-94" value="- loan: double" style="text;align=left;verticalAlign=top;spacingLeft=4;spacingRight=4;overflow=hidden;rotatable=0;points=[[0,0.5],[1,0.5]];portConstraint=eastwest;rounded=0;shadow=0;html=0;" parent="efPww8hpB5FVF6G8bq4k-93" vertex="1">
          <mxGeometry y="26" width="340" height="26" as="geometry" />
        </mxCell>
        <mxCell id="efPww8hpB5FVF6G8bq4k-105" value="-  balance: double" style="text;align=left;verticalAlign=top;spacingLeft=4;spacingRight=4;overflow=hidden;rotatable=0;points=[[0,0.5],[1,0.5]];portConstraint=eastwest;rounded=0;shadow=0;html=0;" parent="efPww8hpB5FVF6G8bq4k-93" vertex="1">
          <mxGeometry y="52" width="340" height="26" as="geometry" />
        </mxCell>
        <mxCell id="efPww8hpB5FVF6G8bq4k-95" value="" style="line;html=1;strokeWidth=1;align=left;verticalAlign=middle;spacingTop=-1;spacingLeft=3;spacingRight=3;rotatable=0;labelPosition=right;points=[];portConstraint=eastwest;" parent="efPww8hpB5FVF6G8bq4k-93" vertex="1">
          <mxGeometry y="78" width="340" height="14" as="geometry" />
        </mxCell>
        <mxCell id="efPww8hpB5FVF6G8bq4k-96" value="+ BusinessAccount(Bank, String, String, String, String, String)" style="text;align=left;verticalAlign=top;spacingLeft=4;spacingRight=4;overflow=hidden;rotatable=0;points=[[0,0.5],[1,0.5]];portConstraint=eastwest;fontStyle=0" parent="efPww8hpB5FVF6G8bq4k-93" vertex="1">
          <mxGeometry y="92" width="340" height="26" as="geometry" />
        </mxCell>
        <mxCell id="XZByMjDaAsr5z9Z-ohTA-2" value="+ init(): void" style="text;align=left;verticalAlign=top;spacingLeft=4;spacingRight=4;overflow=hidden;rotatable=0;points=[[0,0.5],[1,0.5]];portConstraint=eastwest;fontStyle=0" vertex="1" parent="efPww8hpB5FVF6G8bq4k-93">
          <mxGeometry y="118" width="340" height="28" as="geometry" />
        </mxCell>
        <mxCell id="DAPY3BMj_mqrlZBCb3n_-19" value="AccountLauncher" style="swimlane;fontStyle=1;align=center;verticalAlign=top;childLayout=stackLayout;horizontal=1;startSize=26;horizontalStack=0;resizeParent=1;resizeParentMax=0;resizeLast=0;collapsible=1;marginBottom=0;whiteSpace=wrap;html=1;" parent="WIyWlLk6GJQsqaUBKTNV-1" vertex="1">
          <mxGeometry x="242.25" y="550" width="540" height="146" as="geometry">
            <mxRectangle x="-160" y="-800" width="130" height="30" as="alternateBounds" />
          </mxGeometry>
        </mxCell>
        <mxCell id="DAPY3BMj_mqrlZBCb3n_-21" value="&lt;u&gt;# logSession: AccountLogInService&lt;/u&gt;" style="text;strokeColor=none;fillColor=none;align=left;verticalAlign=top;spacingLeft=4;spacingRight=4;overflow=hidden;rotatable=0;points=[[0,0.5],[1,0.5]];portConstraint=eastwest;whiteSpace=wrap;html=1;" parent="DAPY3BMj_mqrlZBCb3n_-19" vertex="1">
          <mxGeometry y="26" width="540" height="26" as="geometry" />
        </mxCell>
        <mxCell id="DAPY3BMj_mqrlZBCb3n_-22" value="" style="line;strokeWidth=1;fillColor=none;align=left;verticalAlign=middle;spacingTop=-1;spacingLeft=3;spacingRight=3;rotatable=0;labelPosition=right;points=[];portConstraint=eastwest;strokeColor=inherit;" parent="DAPY3BMj_mqrlZBCb3n_-19" vertex="1">
          <mxGeometry y="52" width="540" height="8" as="geometry" />
        </mxCell>
        <mxCell id="DAPY3BMj_mqrlZBCb3n_-29" value="&lt;div&gt;&lt;u&gt;+ getLogSession(): AccountLoginService&lt;/u&gt;&lt;/div&gt;&lt;div&gt;&lt;u&gt;&lt;br&gt;&lt;/u&gt;&lt;/div&gt;&lt;div&gt;&lt;u&gt;+ accountInit(): void&lt;/u&gt;&lt;/div&gt;&lt;u&gt;&lt;div&gt;&lt;u&gt;&lt;br&gt;&lt;/u&gt;&lt;/div&gt;+ accountLogin(): void&lt;/u&gt;&lt;div&gt;&lt;u&gt;&lt;br&gt;&lt;/u&gt;&lt;/div&gt;&lt;div&gt;&lt;u&gt;&lt;br&gt;&lt;/u&gt;&lt;/div&gt;" style="text;strokeColor=none;fillColor=none;align=left;verticalAlign=top;spacingLeft=4;spacingRight=4;overflow=hidden;rotatable=0;points=[[0,0.5],[1,0.5]];portConstraint=eastwest;whiteSpace=wrap;html=1;" parent="DAPY3BMj_mqrlZBCb3n_-19" vertex="1">
          <mxGeometry y="60" width="540" height="86" as="geometry" />
        </mxCell>
        <mxCell id="DAPY3BMj_mqrlZBCb3n_-37" value="Extends" style="endArrow=block;endSize=16;endFill=0;html=1;rounded=0;exitX=0.5;exitY=1;exitDx=0;exitDy=0;exitPerimeter=0;" parent="WIyWlLk6GJQsqaUBKTNV-1" source="efPww8hpB5FVF6G8bq4k-27" edge="1">
          <mxGeometry x="0.1731" y="-1" width="160" relative="1" as="geometry">
            <mxPoint x="142.25" y="430.70000000000005" as="sourcePoint" />
            <mxPoint x="332.25" y="548.7" as="targetPoint" />
            <mxPoint as="offset" />
            <Array as="points">
              <mxPoint x="142.25" y="470.70000000000005" />
              <mxPoint x="332.25" y="520.7" />
            </Array>
          </mxGeometry>
        </mxCell>
        <mxCell id="DAPY3BMj_mqrlZBCb3n_-38" value="Extends" style="endArrow=block;endSize=16;endFill=0;html=1;rounded=0;entryX=0.445;entryY=-0.006;entryDx=0;entryDy=0;entryPerimeter=0;" parent="WIyWlLk6GJQsqaUBKTNV-1" edge="1" target="DAPY3BMj_mqrlZBCb3n_-19">
          <mxGeometry x="0.2111" y="1" width="160" relative="1" as="geometry">
            <mxPoint x="402.25" y="429.70000000000005" as="sourcePoint" />
            <mxPoint x="402.25" y="430" as="targetPoint" />
            <mxPoint as="offset" />
            <Array as="points">
              <mxPoint x="402.25" y="470" />
              <mxPoint x="482.25" y="520.7" />
            </Array>
          </mxGeometry>
        </mxCell>
        <mxCell id="DAPY3BMj_mqrlZBCb3n_-39" value="Extends" style="endArrow=block;endSize=16;endFill=0;html=1;rounded=0;exitX=0.574;exitY=1.014;exitDx=0;exitDy=0;exitPerimeter=0;" parent="WIyWlLk6GJQsqaUBKTNV-1" source="efPww8hpB5FVF6G8bq4k-39" edge="1">
          <mxGeometry x="0.1521" y="2" width="160" relative="1" as="geometry">
            <mxPoint x="658.25" y="430.70000000000005" as="sourcePoint" />
            <mxPoint x="592.25" y="550.7" as="targetPoint" />
            <mxPoint as="offset" />
            <Array as="points">
              <mxPoint x="659.25" y="470" />
              <mxPoint x="592.25" y="520.7" />
            </Array>
          </mxGeometry>
        </mxCell>
        <mxCell id="DAPY3BMj_mqrlZBCb3n_-40" value="Extends" style="endArrow=block;endSize=16;endFill=0;html=1;rounded=0;entryX=0.868;entryY=-0.005;entryDx=0;entryDy=0;entryPerimeter=0;exitX=0.516;exitY=1.018;exitDx=0;exitDy=0;exitPerimeter=0;" parent="WIyWlLk6GJQsqaUBKTNV-1" source="efPww8hpB5FVF6G8bq4k-42" edge="1" target="DAPY3BMj_mqrlZBCb3n_-19">
          <mxGeometry x="0.5987" width="160" relative="1" as="geometry">
            <mxPoint x="862.25" y="430.70000000000005" as="sourcePoint" />
            <mxPoint x="892.25" y="430" as="targetPoint" />
            <mxPoint as="offset" />
            <Array as="points">
              <mxPoint x="880" y="480" />
              <mxPoint x="711" y="520" />
            </Array>
          </mxGeometry>
        </mxCell>
        <mxCell id="zkfFHV4jXpPFQw0GAbJ--0" value="Bank" style="swimlane;fontStyle=1;align=center;verticalAlign=top;childLayout=stackLayout;horizontal=1;startSize=26;horizontalStack=0;resizeParent=1;resizeLast=0;collapsible=1;marginBottom=0;rounded=0;shadow=0;strokeWidth=1;" parent="WIyWlLk6GJQsqaUBKTNV-1" vertex="1">
          <mxGeometry x="-312.75" y="584.1700000000001" width="340" height="199.66" as="geometry">
            <mxRectangle x="230" y="140" width="160" height="26" as="alternateBounds" />
          </mxGeometry>
        </mxCell>
        <mxCell id="zkfFHV4jXpPFQw0GAbJ--1" value="- ID: String&#xa;" style="text;align=left;verticalAlign=top;spacingLeft=4;spacingRight=4;overflow=hidden;rotatable=0;points=[[0,0.5],[1,0.5]];portConstraint=eastwest;" parent="zkfFHV4jXpPFQw0GAbJ--0" vertex="1">
          <mxGeometry y="26" width="340" height="26" as="geometry" />
        </mxCell>
        <mxCell id="zkfFHV4jXpPFQw0GAbJ--2" value="- name, passcode: String" style="text;align=left;verticalAlign=top;spacingLeft=4;spacingRight=4;overflow=hidden;rotatable=0;points=[[0,0.5],[1,0.5]];portConstraint=eastwest;rounded=0;shadow=0;html=0;" parent="zkfFHV4jXpPFQw0GAbJ--0" vertex="1">
          <mxGeometry y="52" width="340" height="26" as="geometry" />
        </mxCell>
        <mxCell id="zkfFHV4jXpPFQw0GAbJ--3" value="- DEPOSITLIMIT, WITHDRAWLIMIT, CREDITLIMIT: double" style="text;align=left;verticalAlign=top;spacingLeft=4;spacingRight=4;overflow=hidden;rotatable=0;points=[[0,0.5],[1,0.5]];portConstraint=eastwest;rounded=0;shadow=0;html=0;" parent="zkfFHV4jXpPFQw0GAbJ--0" vertex="1">
          <mxGeometry y="78" width="340" height="26" as="geometry" />
        </mxCell>
        <mxCell id="yqspQjE0i8EztqOaZNLr-7" value="1" style="endArrow=open;html=1;endSize=12;startArrow=diamondThin;startSize=14;startFill=1;edgeStyle=orthogonalEdgeStyle;align=left;verticalAlign=bottom;rounded=0;entryX=1;entryY=0.5;entryDx=0;entryDy=0;exitX=0.472;exitY=1.04;exitDx=0;exitDy=0;exitPerimeter=0;" parent="zkfFHV4jXpPFQw0GAbJ--0" edge="1">
          <mxGeometry x="-0.6574" y="-7" relative="1" as="geometry">
            <mxPoint y="92.15000000000006" as="sourcePoint" />
            <mxPoint x="-145" y="103.98000000000022" as="targetPoint" />
            <Array as="points">
              <mxPoint y="104" />
            </Array>
            <mxPoint as="offset" />
          </mxGeometry>
        </mxCell>
        <mxCell id="0jry5WGNFstQfFkWWXDU-0" value="- processingFee: double" style="text;align=left;verticalAlign=top;spacingLeft=4;spacingRight=4;overflow=hidden;rotatable=0;points=[[0,0.5],[1,0.5]];portConstraint=eastwest;rounded=0;shadow=0;html=0;" parent="zkfFHV4jXpPFQw0GAbJ--0" vertex="1">
          <mxGeometry y="104" width="340" height="26" as="geometry" />
        </mxCell>
        <mxCell id="zkfFHV4jXpPFQw0GAbJ--4" value="" style="line;html=1;strokeWidth=1;align=left;verticalAlign=middle;spacingTop=-1;spacingLeft=3;spacingRight=3;rotatable=0;labelPosition=right;points=[];portConstraint=eastwest;" parent="zkfFHV4jXpPFQw0GAbJ--0" vertex="1">
          <mxGeometry y="130" width="340" height="14" as="geometry" />
        </mxCell>
        <mxCell id="0jry5WGNFstQfFkWWXDU-2" value="+ Bank(String, String, String): Bank" style="text;align=left;verticalAlign=top;spacingLeft=4;spacingRight=4;overflow=hidden;rotatable=0;points=[[0,0.5],[1,0.5]];portConstraint=eastwest;" parent="zkfFHV4jXpPFQw0GAbJ--0" vertex="1">
          <mxGeometry y="144" width="340" height="26" as="geometry" />
        </mxCell>
        <mxCell id="0jry5WGNFstQfFkWWXDU-11" value="+ toString(): String" style="text;align=left;verticalAlign=top;spacingLeft=4;spacingRight=4;overflow=hidden;rotatable=0;points=[[0,0.5],[1,0.5]];portConstraint=eastwest;fontStyle=0" parent="zkfFHV4jXpPFQw0GAbJ--0" vertex="1">
          <mxGeometry y="170" width="340" height="26" as="geometry" />
        </mxCell>
        <mxCell id="0jry5WGNFstQfFkWWXDU-126" value="&lt;p style=&quot;margin:0px;margin-top:4px;text-align:center;&quot;&gt;&lt;i&gt;&amp;lt;&amp;lt;Abstract&amp;gt;&amp;gt;&lt;/i&gt;&lt;br&gt;&lt;b&gt;Account&lt;/b&gt;&lt;/p&gt;&lt;hr size=&quot;1&quot; style=&quot;border-style:solid;&quot;&gt;&lt;p style=&quot;margin:0px;margin-left:4px;&quot;&gt;&lt;br&gt;&lt;/p&gt;" style="verticalAlign=top;align=left;overflow=fill;html=1;whiteSpace=wrap;" parent="WIyWlLk6GJQsqaUBKTNV-1" vertex="1">
          <mxGeometry x="-317.25" y="920" width="349.5" height="233.97" as="geometry" />
        </mxCell>
        <mxCell id="0jry5WGNFstQfFkWWXDU-137" value="" style="line;strokeWidth=1;fillColor=none;align=left;verticalAlign=middle;spacingTop=-1;spacingLeft=3;spacingRight=3;rotatable=0;labelPosition=right;points=[];portConstraint=eastwest;strokeColor=inherit;" parent="WIyWlLk6GJQsqaUBKTNV-1" vertex="1">
          <mxGeometry x="-317.25" y="1067.01" width="349.5" height="7.88" as="geometry" />
        </mxCell>
        <mxCell id="0jry5WGNFstQfFkWWXDU-138" value="+ Account(String, String, String, String, String, String)" style="text;strokeColor=none;fillColor=none;align=left;verticalAlign=top;spacingLeft=4;spacingRight=4;overflow=hidden;rotatable=0;points=[[0,0.5],[1,0.5]];portConstraint=eastwest;whiteSpace=wrap;html=1;" parent="WIyWlLk6GJQsqaUBKTNV-1" vertex="1">
          <mxGeometry x="-317.75" y="1067.01" width="350" height="18.11" as="geometry" />
        </mxCell>
        <mxCell id="0jry5WGNFstQfFkWWXDU-139" value="+ getOwnerFullName(): String&lt;div&gt;&lt;br&gt;&lt;/div&gt;" style="text;strokeColor=none;fillColor=none;align=left;verticalAlign=top;spacingLeft=4;spacingRight=4;overflow=hidden;rotatable=0;points=[[0,0.5],[1,0.5]];portConstraint=eastwest;whiteSpace=wrap;html=1;" parent="WIyWlLk6GJQsqaUBKTNV-1" vertex="1">
          <mxGeometry x="-317.75" y="1087.5100000000002" width="350" height="25.59" as="geometry" />
        </mxCell>
        <mxCell id="0jry5WGNFstQfFkWWXDU-209" value="" style="line;html=1;strokeWidth=1;align=left;verticalAlign=middle;spacingTop=-1;spacingLeft=3;spacingRight=3;rotatable=0;labelPosition=right;points=[];portConstraint=eastwest;" parent="WIyWlLk6GJQsqaUBKTNV-1" vertex="1">
          <mxGeometry x="-317.75" y="1064.06" width="350" height="13.78" as="geometry" />
        </mxCell>
        <mxCell id="0jry5WGNFstQfFkWWXDU-142" value="+ toString(): String" style="text;strokeColor=none;fillColor=none;align=left;verticalAlign=top;spacingLeft=4;spacingRight=4;overflow=hidden;rotatable=0;points=[[0,0.5],[1,0.5]];portConstraint=eastwest;whiteSpace=wrap;html=1;" parent="WIyWlLk6GJQsqaUBKTNV-1" vertex="1">
          <mxGeometry x="-317.25" y="1108.3000000000002" width="350" height="18" as="geometry" />
        </mxCell>
        <mxCell id="0jry5WGNFstQfFkWWXDU-135" value="- pin: String" style="text;strokeColor=none;fillColor=none;align=left;verticalAlign=top;spacingLeft=4;spacingRight=4;overflow=hidden;rotatable=0;points=[[0,0.5],[1,0.5]];portConstraint=eastwest;whiteSpace=wrap;html=1;" parent="WIyWlLk6GJQsqaUBKTNV-1" vertex="1">
          <mxGeometry x="-317.75" y="1021.4100000000001" width="350" height="25.59" as="geometry" />
        </mxCell>
        <mxCell id="0jry5WGNFstQfFkWWXDU-134" value="- OWNERFNAME, OWNERLNAME, OWNEREMAIL: String" style="text;strokeColor=none;fillColor=none;align=left;verticalAlign=top;spacingLeft=4;spacingRight=4;overflow=hidden;rotatable=0;points=[[0,0.5],[1,0.5]];portConstraint=eastwest;whiteSpace=wrap;html=1;" parent="WIyWlLk6GJQsqaUBKTNV-1" vertex="1">
          <mxGeometry x="-317.75" y="1001.3900000000001" width="350" height="25.59" as="geometry" />
        </mxCell>
        <mxCell id="0jry5WGNFstQfFkWWXDU-132" value="- ACCOUNTNUMBER: String" style="text;strokeColor=none;fillColor=none;align=left;verticalAlign=top;spacingLeft=4;spacingRight=4;overflow=hidden;rotatable=0;points=[[0,0.5],[1,0.5]];portConstraint=eastwest;whiteSpace=wrap;html=1;" parent="WIyWlLk6GJQsqaUBKTNV-1" vertex="1">
          <mxGeometry x="-317.75" y="981.0400000000001" width="350" height="25.59" as="geometry" />
        </mxCell>
        <mxCell id="0jry5WGNFstQfFkWWXDU-130" value="- BANKID: String" style="text;strokeColor=none;fillColor=none;align=left;verticalAlign=top;spacingLeft=4;spacingRight=4;overflow=hidden;rotatable=0;points=[[0,0.5],[1,0.5]];portConstraint=eastwest;whiteSpace=wrap;html=1;" parent="WIyWlLk6GJQsqaUBKTNV-1" vertex="1">
          <mxGeometry x="-317.25" y="955.44" width="339.5" height="25.59" as="geometry" />
        </mxCell>
        <mxCell id="DAPY3BMj_mqrlZBCb3n_-64" value="1" style="endArrow=open;html=1;endSize=12;startArrow=diamondThin;startSize=14;startFill=1;edgeStyle=orthogonalEdgeStyle;align=left;verticalAlign=bottom;rounded=0;entryX=0.474;entryY=0;entryDx=0;entryDy=0;entryPerimeter=0;" parent="WIyWlLk6GJQsqaUBKTNV-1" target="0jry5WGNFstQfFkWWXDU-126" edge="1">
          <mxGeometry x="-0.536" y="-16" relative="1" as="geometry">
            <mxPoint x="-157.75" y="780.7" as="sourcePoint" />
            <mxPoint x="-147.75" y="880" as="targetPoint" />
            <Array as="points">
              <mxPoint x="-158" y="790" />
              <mxPoint x="-152" y="790" />
            </Array>
            <mxPoint as="offset" />
          </mxGeometry>
        </mxCell>
        <mxCell id="DAPY3BMj_mqrlZBCb3n_-65" value="Extends" style="endArrow=block;endSize=16;endFill=0;html=1;rounded=0;entryX=0.107;entryY=1;entryDx=0;entryDy=0;entryPerimeter=0;exitX=0.414;exitY=-0.011;exitDx=0;exitDy=0;exitPerimeter=0;" parent="WIyWlLk6GJQsqaUBKTNV-1" source="efPww8hpB5FVF6G8bq4k-83" target="0jry5WGNFstQfFkWWXDU-126" edge="1">
          <mxGeometry x="0.8621" width="160" relative="1" as="geometry">
            <mxPoint x="-277.75" y="1154" as="sourcePoint" />
            <mxPoint x="-737.75" y="1260" as="targetPoint" />
            <mxPoint as="offset" />
            <Array as="points">
              <mxPoint x="-497.75" y="1220.7" />
              <mxPoint x="-279.75" y="1190.7" />
            </Array>
          </mxGeometry>
        </mxCell>
        <mxCell id="DAPY3BMj_mqrlZBCb3n_-66" value="Extends" style="endArrow=block;endSize=16;endFill=0;html=1;rounded=0;entryX=0.25;entryY=1;entryDx=0;entryDy=0;" parent="WIyWlLk6GJQsqaUBKTNV-1" target="0jry5WGNFstQfFkWWXDU-126" edge="1">
          <mxGeometry x="0.4567" width="160" relative="1" as="geometry">
            <mxPoint x="-387.75" y="1260.7" as="sourcePoint" />
            <mxPoint x="-397.75" y="1260" as="targetPoint" />
            <mxPoint as="offset" />
            <Array as="points">
              <mxPoint x="-229.75" y="1220.7" />
            </Array>
          </mxGeometry>
        </mxCell>
        <mxCell id="DAPY3BMj_mqrlZBCb3n_-67" value="Extends" style="endArrow=block;endSize=16;endFill=0;html=1;rounded=0;exitX=0.5;exitY=0;exitDx=0;exitDy=0;entryX=0.672;entryY=1.074;entryDx=0;entryDy=0;entryPerimeter=0;" parent="WIyWlLk6GJQsqaUBKTNV-1" source="efPww8hpB5FVF6G8bq4k-93" target="XZByMjDaAsr5z9Z-ohTA-0" edge="1">
          <mxGeometry x="0.427" width="160" relative="1" as="geometry">
            <mxPoint x="-130" y="1153.97" as="sourcePoint" />
            <mxPoint x="-16.25" y="1259.97" as="targetPoint" />
            <mxPoint as="offset" />
            <Array as="points">
              <mxPoint x="-82.75" y="1220.7" />
            </Array>
          </mxGeometry>
        </mxCell>
        <mxCell id="DAPY3BMj_mqrlZBCb3n_-68" value="Extends" style="endArrow=block;endSize=16;endFill=0;html=1;rounded=0;exitX=0.46;exitY=-0.022;exitDx=0;exitDy=0;exitPerimeter=0;entryX=0.885;entryY=1.001;entryDx=0;entryDy=0;entryPerimeter=0;" parent="WIyWlLk6GJQsqaUBKTNV-1" source="efPww8hpB5FVF6G8bq4k-88" target="0jry5WGNFstQfFkWWXDU-126" edge="1">
          <mxGeometry x="0.8541" width="160" relative="1" as="geometry">
            <mxPoint x="452.25" y="1250.7" as="sourcePoint" />
            <mxPoint x="2.25" y="1150.7" as="targetPoint" />
            <mxPoint as="offset" />
            <Array as="points">
              <mxPoint x="-7.75" y="1190.7" />
            </Array>
          </mxGeometry>
        </mxCell>
        <mxCell id="DAPY3BMj_mqrlZBCb3n_-69" value="1" style="endArrow=open;html=1;endSize=12;startArrow=diamondThin;startSize=14;startFill=1;edgeStyle=orthogonalEdgeStyle;align=left;verticalAlign=bottom;rounded=0;exitX=0.531;exitY=0.972;exitDx=0;exitDy=0;exitPerimeter=0;" parent="WIyWlLk6GJQsqaUBKTNV-1" source="DAPY3BMj_mqrlZBCb3n_-29" target="0jry5WGNFstQfFkWWXDU-135" edge="1">
          <mxGeometry x="-0.9174" y="-15" relative="1" as="geometry">
            <mxPoint x="387.25" y="807.9200000000001" as="sourcePoint" />
            <mxPoint x="172.25" y="817.9200000000001" as="targetPoint" />
            <Array as="points">
              <mxPoint x="529" y="710" />
              <mxPoint x="530" y="710" />
              <mxPoint x="530" y="1034" />
            </Array>
            <mxPoint as="offset" />
          </mxGeometry>
        </mxCell>
        <mxCell id="yqspQjE0i8EztqOaZNLr-3" value="BankLauncher" style="swimlane;fontStyle=1;align=center;verticalAlign=top;childLayout=stackLayout;horizontal=1;startSize=26;horizontalStack=0;resizeParent=1;resizeParentMax=0;resizeLast=0;collapsible=1;marginBottom=0;whiteSpace=wrap;html=1;" parent="WIyWlLk6GJQsqaUBKTNV-1" vertex="1">
          <mxGeometry x="-667.75" y="645" width="210" height="78" as="geometry" />
        </mxCell>
        <mxCell id="yqspQjE0i8EztqOaZNLr-4" value="&lt;u&gt;+ bankLogin(): void&lt;/u&gt;" style="text;strokeColor=none;fillColor=none;align=left;verticalAlign=top;spacingLeft=4;spacingRight=4;overflow=hidden;rotatable=0;points=[[0,0.5],[1,0.5]];portConstraint=eastwest;whiteSpace=wrap;html=1;" parent="yqspQjE0i8EztqOaZNLr-3" vertex="1">
          <mxGeometry y="26" width="210" height="26" as="geometry" />
        </mxCell>
        <mxCell id="yqspQjE0i8EztqOaZNLr-5" value="&lt;u&gt;+ bankInit(): void&lt;/u&gt;" style="text;strokeColor=none;fillColor=none;align=left;verticalAlign=top;spacingLeft=4;spacingRight=4;overflow=hidden;rotatable=0;points=[[0,0.5],[1,0.5]];portConstraint=eastwest;whiteSpace=wrap;html=1;" parent="yqspQjE0i8EztqOaZNLr-3" vertex="1">
          <mxGeometry y="52" width="210" height="26" as="geometry" />
        </mxCell>
        <mxCell id="XZByMjDaAsr5z9Z-ohTA-0" value="&lt;i&gt;+ init(): void&lt;/i&gt;" style="text;strokeColor=none;fillColor=none;align=left;verticalAlign=top;spacingLeft=4;spacingRight=4;overflow=hidden;rotatable=0;points=[[0,0.5],[1,0.5]];portConstraint=eastwest;whiteSpace=wrap;html=1;" vertex="1" parent="WIyWlLk6GJQsqaUBKTNV-1">
          <mxGeometry x="-317.75" y="1126.3000000000002" width="350" height="25.6" as="geometry" />
        </mxCell>
        <mxCell id="XZByMjDaAsr5z9Z-ohTA-4" value="1" style="endArrow=open;html=1;endSize=12;startArrow=diamondThin;startSize=14;startFill=1;edgeStyle=orthogonalEdgeStyle;align=left;verticalAlign=bottom;rounded=0;entryX=1;entryY=0.5;entryDx=0;entryDy=0;" edge="1" parent="WIyWlLk6GJQsqaUBKTNV-1" target="zkfFHV4jXpPFQw0GAbJ--3">
          <mxGeometry x="-0.7694" y="-10" relative="1" as="geometry">
            <mxPoint x="242.25" y="620.7" as="sourcePoint" />
            <mxPoint x="242.25" y="748.5" as="targetPoint" />
            <Array as="points">
              <mxPoint x="132" y="621" />
              <mxPoint x="132" y="675" />
            </Array>
            <mxPoint as="offset" />
          </mxGeometry>
        </mxCell>
      </root>
    </mxGraphModel>
  </diagram>
</mxfile>
